<svg id="Layer_1" data-name="Layer 1" xmlns="http://www.w3.org/2000/svg" viewBox="0 0 647.79 452.78"><defs><style>.cls-1{fill:#73c7ce;}.cls-1,.cls-2{opacity:0.83;}.cls-1,.cls-2,.cls-3{isolation:isolate;}.cls-2,.cls-4{fill:#146878;}.cls-5{fill:#fff;}</style></defs><title>roommates_logo</title><path class="cls-1" d="M577.18,314.7c20.47-17,33.4-42,33.4-69.86,0-51.32-43.9-92.93-98.05-92.93s-98,41.61-98,92.93c0,28.78,13.8,54.5,35.48,71.55L414.48,509.52H610.57L577.67,314.7Z" transform="translate(-217.37 -151.91)"/><path class="cls-2" d="M541.19,314.7c20.47-17,33.4-42,33.4-69.86,0-51.32-43.9-92.93-98.05-92.93s-98.05,41.61-98.05,92.93c0,28.78,13.8,54.5,35.48,71.55L378.49,509.52H574.58L541.68,314.7Z" transform="translate(-217.37 -151.91)"/><g class="cls-3"><g class="cls-3"><path class="cls-4" d="M253.71,604.13l-13.87-27.74H227.35v27.74h-10V538.28h25.52c12.49,0,20.44,8.05,20.44,19.24,0,9.43-5.73,15.44-13.13,17.48l15.16,29.13Zm-11.56-56.88h-14.8v20.63h14.8c6.66,0,11.19-3.79,11.19-10.27S248.81,547.25,242.15,547.25Z" transform="translate(-217.37 -151.91)"/><path class="cls-4" d="M314.38,598c-4.26,4.25-9.8,6.66-17,6.66s-12.76-2.41-17-6.66c-6.47-6.48-6.65-13-6.65-26.82s.18-20.35,6.65-26.82c4.26-4.26,9.81-6.66,17-6.66s12.76,2.4,17,6.66c6.47,6.47,6.66,13,6.66,26.82S320.85,591.55,314.38,598Zm-7.22-47.35a13.83,13.83,0,0,0-19.6,0c-3.24,3.51-3.89,7.49-3.89,20.53s.65,16.92,3.89,20.44a13.62,13.62,0,0,0,19.6,0c3.33-3.43,3.89-7.4,3.89-20.44S310.49,554.1,307.16,550.68Z" transform="translate(-217.37 -151.91)"/><path class="cls-4" d="M372.27,598c-4.25,4.25-9.8,6.66-17,6.66s-12.76-2.41-17-6.66c-6.48-6.48-6.66-13-6.66-26.82s.18-20.35,6.66-26.82c4.25-4.26,9.8-6.66,17-6.66s12.77,2.4,17,6.66c6.47,6.47,6.66,13,6.66,26.82S378.74,591.55,372.27,598Zm-7.21-47.35a13.85,13.85,0,0,0-19.61,0c-3.24,3.51-3.88,7.49-3.88,20.53s.64,16.92,3.88,20.44a13.64,13.64,0,0,0,19.61,0c3.33-3.43,3.88-7.4,3.88-20.44S368.39,554.1,365.06,550.68Z" transform="translate(-217.37 -151.91)"/></g><g class="cls-3"><path class="cls-5" d="M440,604.13V565.75l-12.58,25H418.7l-12.67-25v38.38H393.17V538.28h12.67L423,573.89l17.11-35.61h12.67v65.85Z" transform="translate(-217.37 -151.91)"/><path class="cls-5" d="M514,604.13V565.75l-12.58,25h-8.69l-12.67-25v38.38H467.25V538.28h12.67l17.2,35.61,17.11-35.61H526.9v65.85Z" transform="translate(-217.37 -151.91)"/></g><g class="cls-3"><path class="cls-4" d="M579.7,604.13l-4.53-13.22h-26l-4.53,13.22H534l24.14-65.85h8.05l24.14,65.85Zm-17.29-51L552.14,582.4H572.4Z" transform="translate(-217.37 -151.91)"/><path class="cls-4" d="M615.49,547.25v56.88h-10V547.25H587.38v-9h46.24v9Z" transform="translate(-217.37 -151.91)"/><path class="cls-4" d="M644.07,604.13V538.28h42.08v9h-32.1v19.24h27.38v8.88H654.05v19.79h32.1v9Z" transform="translate(-217.37 -151.91)"/><path class="cls-4" d="M716.38,604.69c-9.89,0-16.92-2.32-23.3-8.7l6.57-6.56c4.8,4.81,10.26,6.38,16.92,6.38,8.69,0,13.6-3.7,13.6-10.18,0-3-.75-5.27-2.59-6.84-1.67-1.48-3.89-2.31-7.22-2.77l-7.77-1.11c-5.36-.84-9.52-2.5-12.39-5.27-3.24-3-4.9-7.22-4.9-12.68,0-11.46,8.32-19.23,22-19.23,8.79,0,14.8,2.22,20.44,7.49l-6.29,6.29c-4.07-3.89-8.88-5.09-14.52-5.09-7.77,0-11.93,4.26-11.93,10.27a7.65,7.65,0,0,0,2.4,6.1c1.67,1.48,3.61,2.41,7.22,3l7.86,1.2c6,.93,9.34,2.32,12.21,4.91,3.51,3.23,5.36,7.76,5.36,13.5C740.06,597.47,730.26,604.69,716.38,604.69Z" transform="translate(-217.37 -151.91)"/></g><g class="cls-3"><path class="cls-4" d="M755,604.13V590.44h13.78v13.69Z" transform="translate(-217.37 -151.91)"/></g><g class="cls-3"><path class="cls-4" d="M810.52,604.13V578.4l-8.43,16.74h-5.83l-8.5-16.74v25.73h-8.62V560h8.5l11.53,23.87L810.64,560h8.5v44.15Z" transform="translate(-217.37 -151.91)"/><path class="cls-4" d="M855.11,604.13,843.76,584l-5.71,6.82v13.27h-8.62V560h8.62V579.2L853.62,560H864.1l-14.64,17.55,15.69,26.6Z" transform="translate(-217.37 -151.91)"/></g></g></svg>