<?xml version="1.0" encoding="utf-8"?>
<!-- Generator: Adobe Illustrator 23.0.3, SVG Export Plug-In . SVG Version: 6.00 Build 0)  -->
<svg version="1.1" id="Layer_1" xmlns="http://www.w3.org/2000/svg" xmlns:xlink="http://www.w3.org/1999/xlink" x="0px" y="0px"
	 viewBox="0 0 1024 768" style="enable-background:new 0 0 1024 768;" xml:space="preserve">
<style type="text/css">
	.st0{opacity:0.83;fill:#73C7CE;}
	.st1{opacity:0.83;fill:#146878;}
	.st2{fill:#146878;}
	.st3{fill:#AA2176;}
</style>
<g>
	<g>
		<path class="st0" d="M577.18,314.7c20.47-17.03,33.4-42.01,33.4-69.86c0-51.32-43.9-92.93-98.05-92.93s-98.05,41.61-98.05,92.93
			c0,28.78,13.8,54.5,35.48,71.55l-35.48,193.13h196.09L577.67,314.7H577.18z"/>
		<path class="st1" d="M541.19,314.7c20.47-17.03,33.4-42.01,33.4-69.86c0-51.32-43.9-92.93-98.05-92.93
			c-54.15,0-98.05,41.61-98.05,92.93c0,28.78,13.8,54.5,35.48,71.55l-35.48,193.13h196.09L541.68,314.7H541.19z"/>
	</g>
	<g>
		<path class="st2" d="M253.71,604.13l-13.87-27.74h-12.49v27.74h-9.99v-65.85h25.53c12.49,0,20.44,8.05,20.44,19.24
			c0,9.43-5.73,15.45-13.13,17.48l15.17,29.13H253.71z M242.15,547.25h-14.8v20.62h14.8c6.66,0,11.19-3.79,11.19-10.27
			S248.81,547.25,242.15,547.25z"/>
		<path class="st2" d="M314.19,598.03c-4.25,4.25-9.8,6.66-17.02,6.66s-12.76-2.4-17.02-6.66c-6.47-6.47-6.66-13.04-6.66-26.82
			c0-13.78,0.19-20.35,6.66-26.82c4.25-4.25,9.8-6.66,17.02-6.66s12.76,2.4,17.02,6.66c6.47,6.47,6.66,13.04,6.66,26.82
			C320.85,584.99,320.67,591.55,314.19,598.03z M306.98,550.68c-2.5-2.59-5.83-4.07-9.8-4.07s-7.31,1.48-9.8,4.07
			c-3.24,3.51-3.88,7.49-3.88,20.53c0,13.04,0.65,16.92,3.88,20.44c2.5,2.59,5.83,4.16,9.8,4.16s7.31-1.57,9.8-4.16
			c3.33-3.42,3.88-7.4,3.88-20.44C310.86,558.17,310.31,554.1,306.98,550.68z"/>
		<path class="st2" d="M371.9,598.03c-4.25,4.25-9.8,6.66-17.02,6.66s-12.76-2.4-17.02-6.66c-6.47-6.47-6.66-13.04-6.66-26.82
			c0-13.78,0.19-20.35,6.66-26.82c4.25-4.25,9.8-6.66,17.02-6.66s12.76,2.4,17.02,6.66c6.47,6.47,6.66,13.04,6.66,26.82
			C378.56,584.99,378.38,591.55,371.9,598.03z M364.69,550.68c-2.5-2.59-5.83-4.07-9.8-4.07s-7.31,1.48-9.8,4.07
			c-3.24,3.51-3.88,7.49-3.88,20.53c0,13.04,0.65,16.92,3.88,20.44c2.5,2.59,5.83,4.16,9.8,4.16s7.31-1.57,9.8-4.16
			c3.33-3.42,3.88-7.4,3.88-20.44C368.57,558.17,368.02,554.1,364.69,550.68z"/>
		<path class="st3" d="M438.12,604.13v-38.38l-12.58,24.97h-8.69l-12.67-24.97v38.38h-12.86v-65.85h12.67l17.2,35.61l17.11-35.61
			h12.67v65.85H438.12z"/>
		<path class="st3" d="M512.01,604.13v-38.38l-12.58,24.97h-8.69l-12.67-24.97v38.38h-12.86v-65.85h12.67l17.2,35.61l17.11-35.61
			h12.67v65.85H512.01z"/>
		<path class="st2" d="M577.85,604.13l-4.53-13.22h-25.99l-4.53,13.22h-10.63l24.14-65.85h8.05l24.14,65.85H577.85z M560.56,553.17
			l-10.27,29.23h20.25L560.56,553.17z"/>
		<path class="st2" d="M613.45,547.25v56.88h-9.99v-56.88h-18.13v-8.97h46.24v8.97H613.45z"/>
		<path class="st2" d="M641.84,604.13v-65.85h42.08v8.97h-32.09v19.24h27.38v8.88h-27.38v19.79h32.09v8.97H641.84z"/>
		<path class="st2" d="M713.98,604.69c-9.9,0-16.92-2.31-23.31-8.69l6.57-6.57c4.81,4.81,10.27,6.38,16.92,6.38
			c8.69,0,13.59-3.7,13.59-10.17c0-2.96-0.74-5.27-2.59-6.84c-1.66-1.48-3.88-2.31-7.21-2.77l-7.77-1.11
			c-5.36-0.83-9.53-2.5-12.39-5.27c-3.24-2.96-4.9-7.21-4.9-12.67c0-11.47,8.32-19.24,22.01-19.24c8.79,0,14.8,2.22,20.44,7.49
			l-6.29,6.29c-4.07-3.88-8.88-5.09-14.52-5.09c-7.77,0-11.93,4.25-11.93,10.27c0,2.4,0.65,4.62,2.4,6.1
			c1.67,1.48,3.61,2.4,7.21,2.96l7.86,1.2c6.01,0.92,9.34,2.31,12.21,4.9c3.51,3.24,5.36,7.77,5.36,13.5
			C737.65,597.47,727.85,604.69,713.98,604.69z"/>
		<path class="st2" d="M747.64,604.13v-13.69h13.78v13.69H747.64z"/>
		<path class="st2" d="M803.12,604.13V578.4l-8.43,16.74h-5.83l-8.5-16.74v25.73h-8.62v-44.15h8.5l11.53,23.88l11.47-23.88h8.5
			v44.15H803.12z"/>
		<path class="st2" d="M846.96,604.13l-11.35-20.09l-5.71,6.82v13.27h-8.62v-44.15h8.62v19.22l15.57-19.22h10.48l-14.63,17.55
			l15.69,26.6H846.96z"/>
	</g>
</g>
</svg>
