<svg id="Layer_1" data-name="Layer 1" xmlns="http://www.w3.org/2000/svg" viewBox="0 0 231.36 231.36"><defs><style>.cls-1{fill:#efd1e3;}</style></defs><path class="cls-1" d="M297.73,536.63A115.68,115.68,0,1,1,413.41,421,115.81,115.81,0,0,1,297.73,536.63Zm39-162.61a8.56,8.56,0,1,0,8.56,8.56A8.56,8.56,0,0,0,336.73,374Zm-38.05,11a36,36,0,1,0,35.95,36A36,36,0,0,0,298.68,385Zm0,59a23,23,0,1,1,23-23A23.06,23.06,0,0,1,298.68,444Zm72.55-52.91a43.85,43.85,0,0,0-43.86-43.86H269.49a43.86,43.86,0,0,0-43.86,43.86V449a43.86,43.86,0,0,0,43.86,43.85h57.88A43.85,43.85,0,0,0,371.23,449ZM357.5,449a30.13,30.13,0,0,1-30.13,30.12H269.49A30.13,30.13,0,0,1,239.36,449V391.07A30.12,30.12,0,0,1,269.49,361h57.88a30.12,30.12,0,0,1,30.13,30.12Z" transform="translate(-182.05 -305.27)"/></svg>